<svg width="326" height="120" viewBox="0 0 326 120" fill="none" xmlns="http://www.w3.org/2000/svg">
<path d="M67.7783 62.656C71.9364 62.6931 74.2753 61.3566 76.2801 60.7997L80.5866 62.2105V51.2956C80.698 49.6992 81.2178 48.6597 82.2944 48.3256H66.9987V48.7711H76.2801V59.4632C74.0526 61.2081 71.3053 62.1362 68.6322 62.0991C54.1904 61.9135 54.1904 35.2202 68.6322 34.9975C73.6813 34.9232 78.8789 38.2645 80.5866 43.8334V34.8861C80.0669 35.9628 79.0274 36.5196 77.7651 36.5196C75.3891 36.5196 73.0502 34.4035 67.7783 34.4035C48.5845 34.4035 48.5845 62.5818 67.7783 62.656ZM84.9521 53.4489C84.9521 58.5351 89.073 62.656 94.1592 62.656C99.2454 62.656 103.366 58.5351 103.366 53.4489C103.366 48.3998 99.2454 44.2417 94.1592 44.2417C89.073 44.2417 84.9521 48.3627 84.9521 53.4489ZM94.1592 44.6873C97.0921 44.6873 99.4682 48.6226 99.4682 53.4489C99.4682 58.3123 97.0921 62.2105 94.1592 62.2105C91.2263 62.2105 88.8131 58.3123 88.8131 53.4489C88.8131 48.6226 91.2263 44.6873 94.1592 44.6873ZM105.828 34.8861C106.905 35.1831 107.462 36.2226 107.536 37.8562V59.2033C107.462 60.8369 106.905 61.8764 105.828 62.2105H113.142C112.065 61.8764 111.508 60.8369 111.434 59.2033V33.2526L105.828 34.8861ZM115.044 53.4489C115.044 58.5351 119.165 62.656 124.251 62.656C126.664 62.656 128.706 61.0967 129.968 58.7949V59.6117C129.931 61.171 130.822 62.2105 132.679 62.2105H135.574C134.498 61.8764 133.941 60.8369 133.83 59.2033V33.2526L128.261 34.8861C129.337 35.1831 129.857 36.2226 129.968 37.8562V47.2118C128.818 45.4298 126.961 44.2417 124.251 44.2417C119.165 44.2417 115.044 48.3627 115.044 53.4489ZM124.251 44.6873C127.11 44.6873 128.966 46.1723 129.968 48.3256V57.6069C128.855 60.3171 126.739 62.2105 124.251 62.2105C121.318 62.2105 118.905 58.3123 118.905 53.4489C118.905 48.6226 121.318 44.6873 124.251 44.6873ZM136.617 53.4489C136.617 58.9806 141.035 62.6931 146.418 62.656C158.818 62.5818 156.962 46.395 166.392 45.2813C168.248 45.0585 169.696 46.2837 169.696 49.6249V59.2033C169.621 60.8369 169.065 61.8764 167.988 62.2105H175.302C174.225 61.8764 173.668 60.8369 173.594 59.2033V49.1794C173.557 45.801 171.403 44.2417 168.619 44.2417C166.28 44.2417 163.533 45.3184 161.268 47.3232V44.7244L155.699 46.3579C156.776 46.692 157.296 47.7315 157.407 49.3279V53.3746C155.922 56.6045 152.878 62.0991 147.198 62.1734C142.037 62.2476 140.441 57.7554 140.478 53.3746H155.031C154.957 48.3256 150.873 44.2417 145.824 44.2417C140.738 44.2417 136.617 48.3627 136.617 53.4489ZM140.515 52.9291C140.664 48.3256 143.002 44.6873 145.824 44.6873C148.646 44.6873 150.984 48.3256 151.133 52.9291H140.515ZM162.976 62.2105C161.899 61.8764 161.38 60.8369 161.268 59.2033V49.0309C159.56 50.9986 157.407 55.0824 157.407 57.7183V59.2033C157.296 60.8369 156.776 61.8764 155.699 62.2105H162.976ZM203.301 62.656C207.459 62.6931 209.798 61.3566 211.803 60.7997L216.109 62.2105V51.2956C216.221 49.6992 216.74 48.6597 217.817 48.3256H202.521V48.7711H211.803V59.4632C209.575 61.2081 206.828 62.1362 204.155 62.0991C189.713 61.9135 189.713 35.2202 204.155 34.9975C209.204 34.9232 214.401 38.2645 216.109 43.8334V34.8861C215.589 35.9628 214.55 36.5196 213.288 36.5196C210.912 36.5196 208.573 34.4035 203.301 34.4035C184.107 34.4035 184.107 62.5818 203.301 62.656ZM227.603 62.2105C226.526 61.8764 225.969 60.8369 225.895 59.2033V44.7244L220.289 46.3579C221.366 46.692 221.923 47.7315 221.997 49.3279V59.2033C221.923 60.8369 221.366 61.8764 220.289 62.2105H227.603ZM221.217 39.4154C221.217 40.9005 222.442 42.1256 223.927 42.1256C225.45 42.1256 226.675 40.9005 226.675 39.4154C226.675 37.8933 225.45 36.6681 223.927 36.6681C222.442 36.6681 221.217 37.8933 221.217 39.4154ZM229.786 46.3579C230.863 46.692 231.42 47.7315 231.494 49.3279V59.2033C231.42 60.8369 230.863 61.8764 229.786 62.2105H237.1C236.023 61.8764 235.466 60.8369 235.392 59.2033V50.6273C235.392 46.8405 236.951 45.4298 238.733 45.4298C241.035 45.4298 243.634 47.8429 243.597 50.7016L246.27 44.9843C246.01 45.0956 245.676 45.1699 245.342 45.1699C243.82 45.1699 241.592 44.2046 239.55 44.2789C237.842 44.3531 236.283 45.207 235.392 47.7687V44.7244L229.786 46.3579ZM246.535 34.8861C247.612 35.1831 248.169 36.2226 248.243 37.8562V59.2033C248.169 60.8369 247.612 61.8764 246.535 62.2105H253.849C252.772 61.8764 252.216 60.8369 252.141 59.2033V33.2526L246.535 34.8861ZM268.393 58.8321C268.393 60.9482 266.165 62.1362 263.567 62.1362C260.448 62.1362 256.736 60.4285 255.622 56.5303V62.359C255.956 61.6536 256.624 61.2824 257.441 61.2824C259 61.2824 260.411 62.656 263.827 62.656C268.95 62.656 271.474 60.2428 271.474 57.3471C271.474 50.0705 258.183 52.7064 258.443 48.1028C258.666 45.9866 260.819 44.7986 263.307 44.7986C266.277 44.7986 269.729 46.5064 270.992 50.4046V44.5388C270.658 45.2441 269.989 45.6154 269.173 45.6154C267.725 45.6154 266.128 44.2789 263.01 44.2417C257.886 44.2789 255.399 46.692 255.362 49.5878C255.288 56.5674 268.541 53.9686 268.393 58.8321Z" fill="white"/>
<path d="M117.665 86.1805H117.377H117.297H116.609H114.561H112.497H112.129H109.953C110.305 86.1485 110.497 85.8819 110.529 85.3805C110.529 85.1032 110.523 84.7619 110.513 84.3565C110.513 83.1619 110.507 81.8445 110.497 80.4045C110.486 78.9752 110.475 77.6632 110.465 76.4685V75.5885H110.449C110.449 75.5245 110.443 75.4445 110.433 75.3485C110.422 75.2525 110.369 75.1192 110.273 74.9485C110.177 74.7779 110.043 74.6872 109.873 74.6765C110.118 74.6659 110.481 74.6605 110.961 74.6605H112.049H112.449C112.235 74.7672 112.107 74.9965 112.065 75.3485V76.4525C112.075 77.6472 112.086 78.9645 112.097 80.4045C112.107 81.8339 112.113 83.1512 112.113 84.3565C112.123 84.8579 112.129 85.2899 112.129 85.6525V85.9405H112.497H114.561H116.609H117.297H117.473C117.515 85.9299 117.553 85.9032 117.585 85.8605C117.617 85.8072 117.638 85.7539 117.649 85.7005L117.665 85.6365V85.7645V86.1805ZM129.511 84.4525C130.364 85.7005 131.388 86.3192 132.583 86.3085V86.3245C133.863 86.2392 134.956 85.4285 135.863 83.8925C136.087 83.5299 136.284 83.0125 136.455 82.3405C136.636 81.6685 136.716 80.9379 136.695 80.1485C136.663 79.4445 136.567 78.7992 136.407 78.2125C136.322 78.8525 135.986 79.4392 135.399 79.9725C134.887 80.4312 133.938 80.9805 132.551 81.6205C131.218 82.2179 130.364 82.6925 129.991 83.0445C129.703 83.3005 129.527 83.5832 129.463 83.8925C129.442 84.0952 129.458 84.2819 129.511 84.4525ZM129.223 83.9885C129.223 83.9245 129.228 83.8765 129.239 83.8445C129.303 83.5032 129.495 83.1779 129.815 82.8685C130.242 82.4845 131.116 81.9992 132.439 81.4125C133.826 80.7619 134.759 80.2232 135.239 79.7965C135.954 79.1352 136.268 78.3725 136.183 77.5085C135.831 76.6125 135.335 75.9085 134.695 75.3965C134.055 74.8739 133.308 74.6072 132.455 74.5965C131.25 74.6392 130.274 75.1832 129.527 76.2285C128.791 77.2739 128.396 78.5805 128.343 80.1485C128.322 80.9379 128.396 81.6685 128.567 82.3405C128.738 83.0019 128.935 83.5192 129.159 83.8925C129.18 83.9352 129.202 83.9672 129.223 83.9885ZM132.375 74.3405L132.695 74.3565C134.338 74.4419 135.644 75.0179 136.615 76.0845C137.586 77.1512 138.098 78.4739 138.151 80.0525C138.226 81.9832 137.799 83.5245 136.871 84.6765C136.359 85.3165 135.772 85.7965 135.111 86.1165C134.45 86.4259 133.612 86.5805 132.599 86.5805C130.668 86.5912 129.196 85.9565 128.183 84.6765C127.276 83.5459 126.85 82.0045 126.903 80.0525C126.967 78.3779 127.468 77.0072 128.407 75.9405C129.356 74.8739 130.679 74.3405 132.375 74.3405ZM156.924 74.7085C156.839 74.7405 156.796 74.7992 156.796 74.8845V75.1725V76.4685C156.807 77.6739 156.812 78.9912 156.812 80.4205C156.823 81.8605 156.828 83.1779 156.828 84.3725V85.6685V86.0365V86.1645H156.604H156.588C156.578 86.1539 156.391 85.9299 156.028 85.4925C155.666 85.0552 155.266 84.5752 154.828 84.0525C154.391 83.5299 153.916 82.9592 153.404 82.3405C152.892 81.7112 152.487 81.2099 152.188 80.8365C151.292 79.7165 150.466 78.6872 149.708 77.7485L148.988 76.8365C148.988 77.8925 148.994 79.0872 149.004 80.4205V84.3725V85.6845V85.9405H149.02C148.999 86.0259 149.042 86.0899 149.148 86.1325L149.292 86.1805H149.26H149.164H148.892H148.812H148.78H148.604H148.492C148.674 86.1592 148.764 86.0845 148.764 85.9565V85.6845V84.3885V80.4205C148.754 78.9805 148.748 77.6579 148.748 76.4525V75.1565V74.9165C148.738 74.8525 148.7 74.7992 148.636 74.7565C148.583 74.7139 148.53 74.6872 148.476 74.6765L148.396 74.6605H148.54H148.748H148.796H148.972H148.988H149.004V74.6765C149.111 74.8152 149.714 75.5512 150.812 76.8845C151.922 78.2072 153.1 79.6205 154.348 81.1245C155.607 82.6285 156.354 83.5245 156.588 83.8125C156.588 82.8205 156.583 81.6899 156.572 80.4205C156.572 78.9912 156.567 77.6739 156.556 76.4685V75.1725V74.8525C156.556 74.8099 156.53 74.7725 156.476 74.7405C156.434 74.7085 156.386 74.6872 156.332 74.6765L156.268 74.6605H156.396H156.668H156.956H157.052C157.042 74.6605 157.02 74.6712 156.988 74.6925C156.956 74.7032 156.935 74.7085 156.924 74.7085ZM171.826 85.9405C172.775 85.9085 173.591 85.5939 174.274 84.9965C175.042 84.3245 175.49 82.7672 175.618 80.3245C175.671 79.4819 175.575 78.6765 175.33 77.9085C175.095 77.1405 174.839 76.5805 174.562 76.2285C173.922 75.4285 172.946 74.9859 171.634 74.9005H171.282H170.194H169.122V75.1565C169.132 75.5085 169.138 75.9405 169.138 76.4525C169.148 77.6472 169.159 78.9645 169.17 80.4045C169.18 81.8339 169.186 83.1512 169.186 84.3565C169.196 84.7405 169.202 85.0659 169.202 85.3325V85.4125V85.6525V85.9405H169.394H170.482H171.57H171.826ZM171.618 86.1805H171.57H170.482H169.394H169.138H169.122H169.042H168.914L167.026 86.1645C167.196 86.1539 167.33 86.0739 167.426 85.9245C167.522 85.7752 167.575 85.6259 167.586 85.4765L167.602 85.2685C167.602 85.0125 167.596 84.7085 167.586 84.3565C167.586 83.1619 167.58 81.8445 167.57 80.4045C167.559 78.9752 167.548 77.6632 167.538 76.4685V75.3485C167.474 74.9219 167.282 74.6925 166.962 74.6605L167.81 74.6765L169.122 74.6605H170.194H171.266H171.602C172.476 74.6499 173.186 74.7245 173.73 74.8845C174.284 75.0339 174.807 75.3112 175.298 75.7165C175.906 76.2179 176.38 76.9112 176.722 77.7965C177.063 78.6819 177.212 79.6045 177.17 80.5645C177.106 81.7059 176.903 82.6925 176.562 83.5245C176.22 84.3459 175.618 85.0232 174.754 85.5565C174.082 85.9725 173.042 86.1805 171.634 86.1805H171.618ZM189.733 84.4525C190.586 85.7005 191.61 86.3192 192.805 86.3085V86.3245C194.085 86.2392 195.178 85.4285 196.085 83.8925C196.309 83.5299 196.506 83.0125 196.677 82.3405C196.858 81.6685 196.938 80.9379 196.917 80.1485C196.885 79.4445 196.789 78.7992 196.629 78.2125C196.543 78.8525 196.207 79.4392 195.621 79.9725C195.109 80.4312 194.159 80.9805 192.773 81.6205C191.439 82.2179 190.586 82.6925 190.213 83.0445C189.925 83.3005 189.749 83.5832 189.685 83.8925C189.663 84.0952 189.679 84.2819 189.733 84.4525ZM189.445 83.9885C189.445 83.9245 189.45 83.8765 189.461 83.8445C189.525 83.5032 189.717 83.1779 190.037 82.8685C190.463 82.4845 191.338 81.9992 192.661 81.4125C194.047 80.7619 194.981 80.2232 195.461 79.7965C196.175 79.1352 196.49 78.3725 196.405 77.5085C196.053 76.6125 195.557 75.9085 194.917 75.3965C194.277 74.8739 193.53 74.6072 192.677 74.5965C191.471 74.6392 190.495 75.1832 189.749 76.2285C189.013 77.2739 188.618 78.5805 188.565 80.1485C188.543 80.9379 188.618 81.6685 188.789 82.3405C188.959 83.0019 189.157 83.5192 189.381 83.8925C189.402 83.9352 189.423 83.9672 189.445 83.9885ZM192.597 74.3405L192.917 74.3565C194.559 74.4419 195.866 75.0179 196.837 76.0845C197.807 77.1512 198.319 78.4739 198.373 80.0525C198.447 81.9832 198.021 83.5245 197.093 84.6765C196.581 85.3165 195.994 85.7965 195.333 86.1165C194.671 86.4259 193.834 86.5805 192.821 86.5805C190.89 86.5912 189.418 85.9565 188.405 84.6765C187.498 83.5459 187.071 82.0045 187.125 80.0525C187.189 78.3779 187.69 77.0072 188.629 75.9405C189.578 74.8739 190.901 74.3405 192.597 74.3405ZM217.146 74.7085C217.061 74.7405 217.018 74.7992 217.018 74.8845V75.1725V76.4685C217.029 77.6739 217.034 78.9912 217.034 80.4205C217.045 81.8605 217.05 83.1779 217.05 84.3725V85.6685V86.0365V86.1645H216.826H216.81C216.8 86.1539 216.613 85.9299 216.25 85.4925C215.888 85.0552 215.488 84.5752 215.05 84.0525C214.613 83.5299 214.138 82.9592 213.626 82.3405C213.114 81.7112 212.709 81.2099 212.41 80.8365C211.514 79.7165 210.688 78.6872 209.93 77.7485L209.21 76.8365C209.21 77.8925 209.216 79.0872 209.226 80.4205V84.3725V85.6845V85.9405H209.242C209.221 86.0259 209.264 86.0899 209.37 86.1325L209.514 86.1805H209.482H209.386H209.114H209.034H209.002H208.826H208.714C208.896 86.1592 208.986 86.0845 208.986 85.9565V85.6845V84.3885V80.4205C208.976 78.9805 208.97 77.6579 208.97 76.4525V75.1565V74.9165C208.96 74.8525 208.922 74.7992 208.858 74.7565C208.805 74.7139 208.752 74.6872 208.698 74.6765L208.618 74.6605H208.762H208.97H209.018H209.194H209.21H209.226V74.6765C209.333 74.8152 209.936 75.5512 211.034 76.8845C212.144 78.2072 213.322 79.6205 214.57 81.1245C215.829 82.6285 216.576 83.5245 216.81 83.8125C216.81 82.8205 216.805 81.6899 216.794 80.4205C216.794 78.9912 216.789 77.6739 216.778 76.4685V75.1725V74.8525C216.778 74.8099 216.752 74.7725 216.698 74.7405C216.656 74.7085 216.608 74.6872 216.554 74.6765L216.49 74.6605H216.618H216.89H217.178H217.274C217.264 74.6605 217.242 74.6712 217.21 74.6925C217.178 74.7032 217.157 74.7085 217.146 74.7085Z" fill="white"/>
<rect x="1.19922" width="323.6" height="120" stroke="white" stroke-opacity="0.1"/>
</svg>
