<svg xmlns="http://www.w3.org/2000/svg" width="25.444" height="27.072" viewBox="0 0 25.444 27.072">
  <g id="Group" transform="translate(-45)" opacity="0.49">
    <path id="Vector" d="M0,0H25.444V27.072H0Z" transform="translate(45)" fill="none"/>
    <path id="Vector-2" data-name="Vector" d="M19.787,2.506V11.92a2.437,2.437,0,0,1-2.355,2.506H7.946L4.138,18.2a.305.305,0,0,1-.528-.234V14.426H2.355A2.437,2.437,0,0,1,0,11.92V2.506A2.437,2.437,0,0,1,2.355,0H17.41a2.469,2.469,0,0,1,2.377,2.506ZM12.04,10.328a.35.35,0,0,0-.33-.351H3.852a.35.35,0,0,0-.33.351v.164a.35.35,0,0,0,.33.351h7.858a.35.35,0,0,0,.33-.351ZM16.266,7.4a.432.432,0,0,0-.418-.445H3.94a.418.418,0,0,0-.418.445.432.432,0,0,0,.418.445H15.847A.432.432,0,0,0,16.266,7.4Zm0-3a.432.432,0,0,0-.418-.445H3.94a.418.418,0,0,0-.418.445.432.432,0,0,0,.418.445H15.847A.432.432,0,0,0,16.266,4.4Z" transform="translate(47.839 4.379)" fill="#9f866f"/>
  </g>
</svg>
