<svg xmlns="http://www.w3.org/2000/svg" width="25.444" height="27.072" viewBox="0 0 25.444 27.072">
  <g id="Group" opacity="0.49">
    <path id="Vector" d="M0,0H25.444V27.072H0Z" fill="none"/>
    <g id="Group-2" data-name="Group">
      <path id="Vector-2" data-name="Vector" d="M10.7,7.249c1.233.4,1.3,1.944.264,2.951a1.865,1.865,0,0,1,0,2.881,2.137,2.137,0,0,1-.176,2.857c.946,1.616-.286,2.365-1.1,2.365H.137a68.809,68.809,0,0,1,0-8.595A9.5,9.5,0,0,1,3.879,3.057S3.967.082,4.693.012c.726-.094,1.893.3,2.047,2.881A7.119,7.119,0,0,1,5.485,7.249s3.962-.4,5.216,0Z" transform="translate(9.988 3.852)" fill="#9f866f"/>
      <path id="Vector-3" data-name="Vector" d="M4.754,10.234H.22A.228.228,0,0,1,0,10V.234A.228.228,0,0,1,.22,0H4.754a.228.228,0,0,1,.22.234V9.976a.235.235,0,0,1-.22.258Z" transform="translate(3.764 12.997)" fill="#9f866f"/>
    </g>
  </g>
</svg>
