<svg xmlns="http://www.w3.org/2000/svg" width="25.444" height="27.072" viewBox="0 0 25.444 27.072">
  <g id="Group" transform="translate(-90)" opacity="0.49">
    <path id="Vector" d="M0,0H25.444V27.072H0Z" transform="translate(90)" fill="none"/>
    <path id="Vector-2" data-name="Vector" d="M17.806,17.681a3.048,3.048,0,0,1-2.949,3.138,3.048,3.048,0,0,1-2.949-3.138,3.727,3.727,0,0,1,.044-.515L5.172,12.459a2.909,2.909,0,0,1-2.223,1.077A3.048,3.048,0,0,1,0,10.4,3.048,3.048,0,0,1,2.949,7.26,2.89,2.89,0,0,1,5.194,8.384L12,3.864a2.62,2.62,0,0,1-.088-.726A3.048,3.048,0,0,1,14.857,0a3.048,3.048,0,0,1,2.949,3.138,3.048,3.048,0,0,1-2.949,3.138,2.826,2.826,0,0,1-1.915-.749L5.877,10.211v.422l6.911,4.777a2.883,2.883,0,0,1,2.047-.89,3.087,3.087,0,0,1,2.971,3.162Z" transform="translate(93.83 3.138)" fill="#9f866f"/>
  </g>
</svg>
