<svg width="224" height="30" viewBox="0 0 224 30" fill="none" xmlns="http://www.w3.org/2000/svg">
<path d="M19.7783 29.656C23.9364 29.6931 26.2753 28.3566 28.2801 27.7997L32.5866 29.2105V18.2956C32.698 16.6992 33.2178 15.6597 34.2944 15.3256H18.9987V15.7711H28.2801V26.4632C26.0526 28.2081 23.3053 29.1362 20.6322 29.0991C6.19041 28.9135 6.19041 2.22025 20.6322 1.9975C25.6813 1.92325 30.8789 5.26454 32.5866 10.8334V1.88612C32.0669 2.96276 31.0274 3.51964 29.7651 3.51964C27.3891 3.51964 25.0502 1.40349 19.7783 1.40349C0.584453 1.40349 0.584453 29.5818 19.7783 29.656ZM36.9521 20.4489C36.9521 25.5351 41.073 29.656 46.1592 29.656C51.2454 29.656 55.3663 25.5351 55.3663 20.4489C55.3663 15.3998 51.2454 11.2417 46.1592 11.2417C41.073 11.2417 36.9521 15.3627 36.9521 20.4489ZM46.1592 11.6873C49.0921 11.6873 51.4682 15.6226 51.4682 20.4489C51.4682 25.3123 49.0921 29.2105 46.1592 29.2105C43.2263 29.2105 40.8131 25.3123 40.8131 20.4489C40.8131 15.6226 43.2263 11.6873 46.1592 11.6873ZM57.8282 1.88612C58.9049 2.18312 59.4617 3.22264 59.536 4.85616V26.2033C59.4617 27.8369 58.9049 28.8764 57.8282 29.2105H65.1419C64.0653 28.8764 63.5084 27.8369 63.4342 26.2033V0.252598L57.8282 1.88612ZM67.044 20.4489C67.044 25.5351 71.165 29.656 76.2512 29.656C78.6643 29.656 80.7062 28.0967 81.9685 25.7949V26.6117C81.9314 28.171 82.8224 29.2105 84.6787 29.2105H87.5744C86.4978 28.8764 85.9409 27.8369 85.8296 26.2033V0.252598L80.2607 1.88612C81.3374 2.18312 81.8571 3.22264 81.9685 4.85616V14.2118C80.8176 12.4298 78.9613 11.2417 76.2512 11.2417C71.165 11.2417 67.044 15.3627 67.044 20.4489ZM76.2512 11.6873C79.1098 11.6873 80.9661 13.1723 81.9685 15.3256V24.6069C80.8547 27.3171 78.7386 29.2105 76.2512 29.2105C73.3183 29.2105 70.9051 25.3123 70.9051 20.4489C70.9051 15.6226 73.3183 11.6873 76.2512 11.6873ZM88.6169 20.4489C88.6169 25.9806 93.0348 29.6931 98.418 29.656C110.818 29.5818 108.962 13.395 118.392 12.2813C120.248 12.0585 121.696 13.2837 121.696 16.6249V26.2033C121.621 27.8369 121.065 28.8764 119.988 29.2105H127.302C126.225 28.8764 125.668 27.8369 125.594 26.2033V16.1794C125.557 12.801 123.403 11.2417 120.619 11.2417C118.28 11.2417 115.533 12.3184 113.268 14.3232V11.7244L107.699 13.3579C108.776 13.692 109.296 14.7315 109.407 16.3279V20.3746C107.922 23.6045 104.878 29.0991 99.1976 29.1734C94.0372 29.2476 92.4408 24.7554 92.4779 20.3746H107.031C106.957 15.3256 102.873 11.2417 97.824 11.2417C92.7378 11.2417 88.6169 15.3627 88.6169 20.4489ZM92.515 19.9291C92.6635 15.3256 95.0024 11.6873 97.824 11.6873C100.646 11.6873 102.984 15.3256 103.133 19.9291H92.515ZM114.976 29.2105C113.899 28.8764 113.38 27.8369 113.268 26.2033V16.0309C111.56 17.9986 109.407 22.0824 109.407 24.7183V26.2033C109.296 27.8369 108.776 28.8764 107.699 29.2105H114.976ZM155.301 29.656C159.459 29.6931 161.798 28.3566 163.803 27.7997L168.109 29.2105V18.2956C168.221 16.6992 168.74 15.6597 169.817 15.3256H154.521V15.7711H163.803V26.4632C161.575 28.2081 158.828 29.1362 156.155 29.0991C141.713 28.9135 141.713 2.22025 156.155 1.9975C161.204 1.92325 166.401 5.26454 168.109 10.8334V1.88612C167.589 2.96276 166.55 3.51964 165.288 3.51964C162.912 3.51964 160.573 1.40349 155.301 1.40349C136.107 1.40349 136.107 29.5818 155.301 29.656ZM179.603 29.2105C178.526 28.8764 177.969 27.8369 177.895 26.2033V11.7244L172.289 13.3579C173.366 13.692 173.923 14.7315 173.997 16.3279V26.2033C173.923 27.8369 173.366 28.8764 172.289 29.2105H179.603ZM173.217 6.41543C173.217 7.90045 174.442 9.1256 175.927 9.1256C177.45 9.1256 178.675 7.90045 178.675 6.41543C178.675 4.89329 177.45 3.66815 175.927 3.66815C174.442 3.66815 173.217 4.89329 173.217 6.41543ZM181.786 13.3579C182.863 13.692 183.42 14.7315 183.494 16.3279V26.2033C183.42 27.8369 182.863 28.8764 181.786 29.2105H189.1C188.023 28.8764 187.466 27.8369 187.392 26.2033V17.6273C187.392 13.8405 188.951 12.4298 190.733 12.4298C193.035 12.4298 195.634 14.8429 195.597 17.7016L198.27 11.9843C198.01 12.0956 197.676 12.1699 197.342 12.1699C195.82 12.1699 193.592 11.2046 191.55 11.2789C189.842 11.3531 188.283 12.207 187.392 14.7687V11.7244L181.786 13.3579ZM198.535 1.88612C199.612 2.18312 200.169 3.22264 200.243 4.85616V26.2033C200.169 27.8369 199.612 28.8764 198.535 29.2105H205.849C204.772 28.8764 204.216 27.8369 204.141 26.2033V0.252598L198.535 1.88612ZM220.393 25.8321C220.393 27.9482 218.165 29.1362 215.567 29.1362C212.448 29.1362 208.736 27.4285 207.622 23.5303V29.359C207.956 28.6536 208.624 28.2824 209.441 28.2824C211 28.2824 212.411 29.656 215.827 29.656C220.95 29.656 223.474 27.2428 223.474 24.3471C223.474 17.0705 210.183 19.7064 210.443 15.1028C210.666 12.9866 212.819 11.7986 215.307 11.7986C218.277 11.7986 221.729 13.5064 222.992 17.4046V11.5388C222.658 12.2441 221.989 12.6154 221.173 12.6154C219.725 12.6154 218.128 11.2789 215.01 11.2417C209.886 11.2789 207.399 13.692 207.362 16.5878C207.288 23.5674 220.541 20.9686 220.393 25.8321Z" fill="black"/>
</svg>
