<svg xmlns="http://www.w3.org/2000/svg" width="182.293" height="44.575" viewBox="0 0 182.293 44.575">
  <g id="Group_162" data-name="Group 162" transform="translate(10111.617 5461.747)">
    <path id="Path_12" data-name="Path 12" d="M863.415,58.83c3.476.031,5.431-1.086,7.107-1.552l3.6,1.179V49.334c.093-1.334.528-2.2,1.427-2.483H862.764v.372h7.758v8.937a10.248,10.248,0,0,1-6.393,2.2c-12.072-.155-12.072-22.467,0-22.653a10.452,10.452,0,0,1,9.993,7.386V35.618a2.476,2.476,0,0,1-2.359,1.365c-1.986,0-3.941-1.769-8.348-1.769C847.372,35.215,847.372,58.768,863.415,58.83Zm14.355-7.7a7.7,7.7,0,1,0,7.7-7.7A7.695,7.695,0,0,0,877.771,51.134Zm7.7-7.324c2.452,0,4.438,3.289,4.438,7.324,0,4.065-1.986,7.324-4.438,7.324S881,55.2,881,51.134C881,47.1,883.015,43.811,885.466,43.811Zm9.754-8.193c.9.248,1.366,1.117,1.428,2.483V55.944c-.062,1.365-.527,2.234-1.428,2.514h6.114c-.9-.279-1.366-1.148-1.428-2.514V34.253Zm7.7,15.516a7.7,7.7,0,0,0,7.7,7.7A5.591,5.591,0,0,0,915.4,55.6v.683a1.991,1.991,0,0,0,2.266,2.172h2.42c-.9-.279-1.365-1.148-1.458-2.514V34.253l-4.655,1.365c.9.248,1.334,1.117,1.427,2.483v7.82a5.369,5.369,0,0,0-4.779-2.483A7.7,7.7,0,0,0,902.924,51.134Zm7.7-7.324a4.981,4.981,0,0,1,4.779,3.041V54.61c-.93,2.265-2.7,3.848-4.779,3.848-2.452,0-4.469-3.258-4.469-7.324C906.151,47.1,908.168,43.811,910.62,43.811Zm10.336,7.324c0,4.624,3.693,7.727,8.192,7.7,10.365-.062,8.813-13.592,16.7-14.523,1.551-.186,2.762.838,2.762,3.631v8.006c-.063,1.365-.527,2.234-1.428,2.514h6.114c-.9-.279-1.366-1.148-1.428-2.514V47.565a3.834,3.834,0,0,0-4.158-4.127,9.683,9.683,0,0,0-6.145,2.576V43.842l-4.655,1.365c.9.279,1.335,1.148,1.428,2.483v3.383c-1.241,2.7-3.786,7.293-8.533,7.355-4.314.062-5.648-3.693-5.617-7.355h12.164a7.7,7.7,0,0,0-15.392.062Zm3.258-.434c.125-3.848,2.079-6.889,4.438-6.889s4.313,3.041,4.438,6.889Zm18.775,7.758c-.9-.279-1.334-1.148-1.428-2.514v-8.5c-1.428,1.645-3.227,5.058-3.227,7.262v1.241c-.093,1.365-.527,2.234-1.428,2.514Zm33.706.372c3.477.031,5.433-1.086,7.1-1.552l3.6,1.179V49.334c.092-1.334.527-2.2,1.429-2.483H976.042v.372H983.8v8.937a10.229,10.229,0,0,1-6.394,2.2c-12.068-.155-12.068-22.467,0-22.653a10.458,10.458,0,0,1,10,7.386V35.618a2.475,2.475,0,0,1-2.357,1.365c-1.989,0-3.945-1.769-8.35-1.769C960.651,35.215,960.651,58.768,976.694,58.83Zm20.312-.372c-.894-.279-1.363-1.148-1.421-2.514v-12.1L990.9,45.207c.9.279,1.362,1.148,1.429,2.483v8.255c-.067,1.365-.527,2.234-1.429,2.514ZM991.673,39.4a2.278,2.278,0,1,0,2.265-2.3A2.275,2.275,0,0,0,991.673,39.4Zm7.164,5.8c.894.279,1.362,1.148,1.421,2.483v8.255c-.058,1.365-.527,2.234-1.421,2.514h6.11c-.9-.279-1.362-1.148-1.429-2.514V48.776c0-3.165,1.3-4.344,2.792-4.344a4.488,4.488,0,0,1,4.071,4.407l2.232-4.779a2.023,2.023,0,0,1-.777.155c-1.271,0-3.135-.807-4.84-.745-1.429.062-2.733.776-3.477,2.917V43.842Zm14-9.589c.894.248,1.362,1.117,1.421,2.483V55.944c-.059,1.365-.527,2.234-1.421,2.514h6.11c-.9-.279-1.362-1.148-1.429-2.514V34.253ZM1031.1,55.634c0,1.769-1.856,2.762-4.029,2.762a6.746,6.746,0,0,1-6.645-4.686v4.872a1.6,1.6,0,0,1,1.521-.9c1.3,0,2.483,1.148,5.341,1.148,4.28,0,6.386-2.017,6.386-4.438,0-6.082-11.109-3.879-10.891-7.727.192-1.769,1.989-2.762,4.071-2.762a6.686,6.686,0,0,1,6.42,4.686v-4.9a1.588,1.588,0,0,1-1.521.9c-1.212,0-2.541-1.117-5.149-1.148-4.28.031-6.361,2.048-6.395,4.469C1020.151,53.741,1031.227,51.569,1031.1,55.634Z" transform="translate(-10963 -5496)"/>
    <path id="Path_13" data-name="Path 13" d="M914.386,85.237H907.94q.441-.04.481-.669c0-.232,0-.517-.013-.856q0-1.5-.013-3.3t-.027-3.29v-.736h-.013c0-.053-.005-.12-.013-.2a.987.987,0,0,0-.134-.334.4.4,0,0,0-.334-.227q.307-.013.909-.013h1.244a.675.675,0,0,0-.321.575v.923q.013,1.5.027,3.3t.013,3.3q.013.629.013,1.083v.241h4.467a.17.17,0,0,0,.094-.067.425.425,0,0,0,.053-.134l.013-.053v.455Zm9.9-1.444a3.045,3.045,0,0,0,2.568,1.551v.013a3.534,3.534,0,0,0,2.742-2.033,4.765,4.765,0,0,0,.495-1.3,6.369,6.369,0,0,0,.2-1.832,7.428,7.428,0,0,0-.241-1.618,2.414,2.414,0,0,1-.843,1.471,10.369,10.369,0,0,1-2.38,1.378,8.953,8.953,0,0,0-2.14,1.19,1.3,1.3,0,0,0-.441.709A1.163,1.163,0,0,0,924.288,83.793Zm-.241-.388a.4.4,0,0,1,.013-.12,1.542,1.542,0,0,1,.481-.816,9.315,9.315,0,0,1,2.193-1.217,10.782,10.782,0,0,0,2.34-1.351,2.215,2.215,0,0,0,.789-1.912,4.137,4.137,0,0,0-1.244-1.765,2.934,2.934,0,0,0-1.872-.669,3.021,3.021,0,0,0-2.447,1.364,5.914,5.914,0,0,0-.99,3.277,6.686,6.686,0,0,0,.187,1.832,5.011,5.011,0,0,0,.495,1.3A.313.313,0,0,0,924.047,83.4Zm2.635-8.064.267.013a4.552,4.552,0,0,1,3.277,1.444,5.006,5.006,0,0,1,1.284,3.317,5.616,5.616,0,0,1-1.07,3.865,4.263,4.263,0,0,1-1.471,1.2,4.961,4.961,0,0,1-2.1.388,4.394,4.394,0,0,1-3.691-1.591,5.747,5.747,0,0,1-1.07-3.865,5.334,5.334,0,0,1,1.257-3.437A4.21,4.21,0,0,1,926.682,75.341Zm20.52.308a.147.147,0,0,0-.107.147v1.324q.014,1.511.013,3.3t.013,3.3v1.5h-.2q-.013-.013-.468-.562t-1-1.2q-.548-.655-1.19-1.431t-1.016-1.257q-1.123-1.4-2.073-2.581l-.6-.762q0,1.324.013,3v4.614h.013c-.018.071.018.125.107.16l.12.04h-.669c.152-.018.227-.08.227-.187V80.423q-.012-1.805-.013-3.317V75.822a.2.2,0,0,0-.094-.134.312.312,0,0,0-.134-.067l-.067-.013h.508v.013q.134.174,1.511,1.846t2.956,3.544q1.578,1.886,1.872,2.247,0-1.244-.013-2.835,0-1.792-.013-3.3V75.768a.112.112,0,0,0-.067-.094.288.288,0,0,0-.12-.053l-.053-.013h.655a.142.142,0,0,0-.053.027A.215.215,0,0,1,947.2,75.648Zm12.456,9.389a3.175,3.175,0,0,0,2.046-.789q.963-.843,1.123-3.905a5.457,5.457,0,0,0-.241-2.019,4.441,4.441,0,0,0-.642-1.4,3.233,3.233,0,0,0-2.448-1.11h-2.1v.214q.013.441.013,1.083.013,1.5.027,3.3t.013,3.3c.008.321.013.593.013.816v.508h2.193Zm-.174.2h-2.26l-1.578-.013a.411.411,0,0,0,.334-.2.8.8,0,0,0,.134-.374l.013-.174c0-.214,0-.468-.013-.762q0-1.5-.013-3.3t-.027-3.29v-.936q-.08-.535-.482-.575l.709.013,1.1-.013h2.073a6.206,6.206,0,0,1,1.779.187,3.472,3.472,0,0,1,1.311.7,4.115,4.115,0,0,1,1.19,1.739,5.678,5.678,0,0,1,.375,2.314,7.65,7.65,0,0,1-.508,2.474,3.631,3.631,0,0,1-1.511,1.7,5.082,5.082,0,0,1-2.608.522Zm15.142-1.444a3.045,3.045,0,0,0,2.568,1.551v.013a3.534,3.534,0,0,0,2.742-2.033,4.767,4.767,0,0,0,.495-1.3,6.371,6.371,0,0,0,.2-1.832,7.432,7.432,0,0,0-.241-1.618,2.423,2.423,0,0,1-.843,1.471,10.39,10.39,0,0,1-2.381,1.378,8.938,8.938,0,0,0-2.14,1.19,1.3,1.3,0,0,0-.441.709A1.134,1.134,0,0,0,974.626,83.793Zm-.241-.388a.4.4,0,0,1,.013-.12,1.543,1.543,0,0,1,.482-.816,9.3,9.3,0,0,1,2.193-1.217,10.8,10.8,0,0,0,2.34-1.351,2.218,2.218,0,0,0,.789-1.912,4.138,4.138,0,0,0-1.244-1.765,2.933,2.933,0,0,0-1.872-.669,3.018,3.018,0,0,0-2.447,1.364,5.913,5.913,0,0,0-.99,3.277,6.658,6.658,0,0,0,.187,1.832,4.982,4.982,0,0,0,.495,1.3A.29.29,0,0,0,974.385,83.4Zm2.635-8.064.267.013a4.553,4.553,0,0,1,3.277,1.444,5.014,5.014,0,0,1,1.284,3.317,5.62,5.62,0,0,1-1.07,3.865,4.262,4.262,0,0,1-1.471,1.2,4.964,4.964,0,0,1-2.1.388,4.393,4.393,0,0,1-3.691-1.591,5.743,5.743,0,0,1-1.07-3.865,5.334,5.334,0,0,1,1.257-3.437A4.209,4.209,0,0,1,977.02,75.341Zm20.523.308a.144.144,0,0,0-.109.147v1.324c.008,1.008.008,2.109.008,3.3s.017,2.3.017,3.3v1.5h-.2c-.008-.009-.167-.2-.468-.562s-.635-.767-1-1.2-.761-.914-1.187-1.431-.769-.945-1.02-1.257c-.752-.936-1.438-1.8-2.073-2.581l-.6-.762c0,.883.008,1.881.017,3v4.614h.008c-.017.071.017.125.109.16l.117.04h-.669c.159-.018.234-.08.234-.187V80.423c-.008-1.2-.017-2.309-.017-3.317V75.822a.2.2,0,0,0-.092-.134.371.371,0,0,0-.134-.067l-.067-.013h.51v.013c.084.116.594.731,1.5,1.846q1.392,1.658,2.959,3.544c1.053,1.257,1.68,2.006,1.872,2.247,0-.829-.008-1.774-.017-2.835,0-1.195,0-2.3-.008-3.3V75.768a.119.119,0,0,0-.067-.094.274.274,0,0,0-.125-.053l-.05-.013h.652a.126.126,0,0,0-.05.027A.193.193,0,0,1,997.543,75.648Z" transform="translate(-10972.271 -5502.744)"/>
  </g>
</svg>
