<svg width="49" height="48" viewBox="0 0 49 48" fill="none" xmlns="http://www.w3.org/2000/svg">
<rect x="0.0175781" width="48" height="48" rx="24" fill="#D2D2D2"/>
<path d="M24.0208 24.7918C29.8891 24.7918 34.6862 19.9947 34.6862 14.1264C34.6862 8.25802 29.8891 3.46094 24.0208 3.46094C18.1525 3.46094 13.3555 8.25802 13.3555 14.1264C13.3555 19.9947 18.1526 24.7918 24.0208 24.7918Z" fill="white"/>
<path d="M42.3241 33.3147C42.0447 32.6161 41.6721 31.9641 41.253 31.3586C39.1105 28.1916 35.8039 26.0958 32.0779 25.5834C31.6123 25.5369 31.0999 25.63 30.7273 25.9094C28.7712 27.3532 26.4425 28.0984 24.0206 28.0984C21.5987 28.0984 19.2701 27.3532 17.314 25.9094C16.9414 25.63 16.429 25.4903 15.9633 25.5834C12.2374 26.0958 8.88414 28.1916 6.78834 31.3586C6.36918 31.9641 5.99655 32.6627 5.71717 33.3147C5.57748 33.5942 5.62401 33.9202 5.7637 34.1997C6.13633 34.8517 6.60202 35.5038 7.02118 36.0626C7.67319 36.9476 8.37182 37.7393 9.16361 38.4844C9.81562 39.1365 10.5608 39.7419 11.306 40.3474C14.9853 43.0953 19.4099 44.539 23.9741 44.539C28.5383 44.539 32.9629 43.0952 36.6422 40.3474C37.3873 39.7885 38.1325 39.1365 38.7846 38.4844C39.5298 37.7393 40.2749 36.9475 40.927 36.0626C41.3927 35.4572 41.812 34.8517 42.1845 34.1997C42.4173 33.9202 42.4638 33.5941 42.3241 33.3147Z" fill="white"/>
</svg>
